<?xml version="1.0" standalone="no"?>
<!DOCTYPE svg PUBLIC "-//W3C//DTD SVG 20010904//EN"
 "http://www.w3.org/TR/2001/REC-SVG-20010904/DTD/svg10.dtd">
<svg version="1.0" xmlns="http://www.w3.org/2000/svg"
 width="554.000000pt" height="750.000000pt" viewBox="0 0 554.000000 750.000000"
 preserveAspectRatio="xMidYMid meet">

<g transform="translate(0.000000,750.000000) scale(0.100000,-0.100000)"
fill="#000000" stroke="none">
<path d="M3670 6900 l0 -200 35 0 35 0 0 59 c0 85 18 86 76 6 43 -61 48 -65
85 -65 46 0 48 -4 -28 94 l-54 69 23 26 c12 14 38 43 57 64 l35 37 -41 0 c-38
0 -46 -5 -97 -62 l-56 -61 0 116 0 117 -35 0 -35 0 0 -200z"/>
<path d="M310 6895 l0 -195 120 0 120 0 0 25 c0 25 -1 25 -85 25 l-85 0 0 65
0 65 75 0 c73 0 75 1 75 25 0 24 -2 25 -75 25 l-75 0 0 55 0 55 80 0 c79 0 80
0 80 25 l0 25 -115 0 -115 0 0 -195z"/>
<path d="M2560 7065 c0 -24 3 -25 55 -25 l55 0 0 -170 0 -170 35 0 35 0 0 170
0 170 55 0 c52 0 55 1 55 25 l0 25 -145 0 -145 0 0 -25z"/>
<path d="M599 6973 c5 -10 26 -40 45 -68 20 -27 36 -53 36 -57 0 -5 -22 -39
-50 -78 l-50 -70 39 0 c36 0 42 4 71 50 18 28 35 50 39 50 3 0 19 -23 36 -50
27 -46 32 -50 68 -50 43 0 44 -4 -19 86 l-43 61 50 72 50 71 -38 0 c-35 0 -41
-5 -72 -52 l-33 -52 -32 52 c-28 48 -34 52 -69 52 -33 0 -36 -2 -28 -17z"/>
<path d="M920 6785 l0 -205 30 0 30 0 0 76 0 75 22 -15 c34 -24 109 -21 137 5
67 63 65 208 -4 253 -32 21 -94 20 -124 0 -22 -16 -24 -16 -33 0 -5 9 -20 16
-33 16 l-25 0 0 -205z m186 130 c19 -29 16 -124 -5 -149 -17 -20 -75 -21 -95
-1 -24 24 -30 96 -12 138 14 34 18 37 55 37 32 0 44 -5 57 -25z"/>
<path d="M1281 6964 c-73 -62 -62 -207 20 -250 57 -29 184 -12 177 24 -3 14
-13 16 -60 14 -31 -2 -65 -1 -76 2 -18 6 -42 44 -42 66 0 6 42 10 96 10 l97 0
-5 52 c-4 42 -11 57 -37 80 -26 23 -40 28 -85 28 -44 0 -60 -5 -85 -26z m139
-43 c19 -36 12 -41 -55 -41 -36 0 -65 3 -65 8 0 4 7 18 16 30 20 30 88 31 104
3z"/>
<path d="M1550 6845 l0 -145 35 0 35 0 0 103 c0 88 3 106 18 120 24 22 88 23
96 1 3 -9 6 -63 6 -120 l0 -104 35 0 35 0 0 110 c0 115 -12 161 -45 174 -30
11 -101 6 -121 -9 -25 -19 -34 -19 -34 0 0 10 -10 15 -30 15 l-30 0 0 -145z"/>
<path d="M1895 6965 c-50 -49 -24 -103 67 -142 48 -21 58 -30 56 -47 -3 -19
-10 -21 -72 -21 -51 0 -71 -4 -74 -14 -8 -25 29 -41 94 -41 80 0 114 24 114
79 0 49 -14 65 -82 96 -44 19 -58 30 -58 46 0 19 5 21 62 17 55 -3 63 -1 66
16 6 27 -15 36 -86 36 -54 0 -67 -4 -87 -25z"/>
<path d="M2188 6972 c-42 -26 -61 -74 -56 -145 4 -54 8 -63 41 -93 33 -31 43
-34 96 -34 78 0 109 14 103 46 -3 19 -8 22 -22 14 -10 -6 -41 -10 -69 -10 -40
0 -53 4 -65 22 -9 12 -16 30 -16 40 0 16 11 18 95 18 86 0 95 2 95 19 0 45
-15 84 -42 112 -25 25 -37 29 -81 29 -31 0 -63 -7 -79 -18z m120 -44 c7 -7 12
-20 12 -30 0 -15 -9 -18 -60 -18 -64 0 -76 12 -44 44 18 19 75 21 92 4z"/>
<path d="M2890 6845 l0 -145 35 0 35 0 0 94 c0 79 3 97 21 120 14 17 30 26 50
26 24 0 29 4 29 25 0 19 -5 25 -21 25 -23 0 -60 -18 -70 -33 -4 -5 -10 0 -14
12 -4 15 -15 21 -36 21 l-29 0 0 -145z"/>
<path d="M3133 6980 c-14 -6 -20 -15 -17 -28 5 -16 15 -18 72 -18 66 1 67 1
70 -26 2 -20 -1 -28 -12 -28 -40 0 -120 -24 -137 -41 -27 -27 -26 -92 3 -119
26 -24 86 -27 129 -5 26 14 30 14 35 0 3 -8 17 -15 31 -15 l25 0 -4 126 c-3
118 -4 127 -27 145 -17 14 -38 19 -85 18 -33 0 -71 -4 -83 -9z m127 -173 c0
-43 -15 -57 -61 -57 -84 0 -52 87 34 89 24 1 27 -3 27 -32z"/>
<path d="M3461 6977 c-83 -43 -95 -188 -20 -252 24 -20 41 -25 84 -25 68 0 85
7 85 34 0 21 -4 22 -59 18 -52 -4 -60 -2 -75 19 -21 31 -21 117 0 148 14 20
23 22 73 19 48 -3 56 0 59 16 2 10 -2 22 -10 27 -20 13 -110 10 -137 -4z"/>
<path d="M4018 6974 c-39 -21 -58 -64 -58 -129 0 -99 46 -145 145 -145 64 0
95 13 95 39 0 16 -7 18 -67 14 -73 -6 -92 4 -107 55 -7 22 -6 22 95 22 l102 0
-7 40 c-9 58 -26 90 -57 106 -36 18 -106 17 -141 -2z m120 -46 c7 -7 12 -20
12 -30 0 -15 -9 -18 -60 -18 -51 0 -60 3 -60 18 0 28 20 42 60 42 20 0 41 -5
48 -12z"/>
<path d="M4270 6845 l0 -145 35 0 35 0 0 94 c0 79 3 97 21 120 14 17 30 26 50
26 24 0 29 4 29 25 0 19 -5 25 -21 25 -23 0 -60 -18 -70 -33 -4 -5 -10 0 -14
12 -4 15 -15 21 -36 21 l-29 0 0 -145z"/>
<path d="M300 5420 c0 -123 1 -130 20 -130 18 0 20 7 20 55 l0 55 60 0 60 0 0
-55 c0 -52 1 -55 25 -55 l25 0 0 130 0 130 -25 0 c-24 0 -25 -3 -25 -55 l0
-55 -60 0 -60 0 0 55 c0 48 -2 55 -20 55 -19 0 -20 -7 -20 -130z"/>
<path d="M1160 5530 c0 -13 7 -20 20 -20 13 0 20 7 20 20 0 13 -7 20 -20 20
-13 0 -20 -7 -20 -20z"/>
<path d="M593 5475 c-50 -35 -50 -135 0 -170 32 -23 82 -19 114 9 24 21 28 32
28 76 0 44 -4 55 -28 76 -32 28 -82 32 -114 9z m85 -37 c16 -16 16 -80 0 -96
-7 -7 -21 -12 -33 -12 -31 0 -45 19 -45 60 0 41 14 60 45 60 12 0 26 -5 33
-12z"/>
<path d="M772 5409 c3 -70 6 -83 27 -100 33 -27 86 -25 116 6 22 21 25 33 25
100 0 73 -1 75 -25 75 -23 0 -24 -3 -27 -77 l-3 -78 -30 0 -30 0 -3 78 c-3 75
-3 77 -28 77 l-26 0 4 -81z"/>
<path d="M996 5477 c-12 -9 -17 -23 -14 -42 2 -25 12 -34 50 -53 35 -16 46
-26 41 -38 -5 -13 -15 -15 -50 -10 -38 5 -43 3 -43 -14 0 -14 9 -21 35 -26 49
-9 84 2 97 31 16 35 4 53 -47 76 -54 24 -54 44 1 45 27 0 40 5 42 16 5 27 -80
39 -112 15z"/>
<path d="M1160 5390 c0 -93 1 -100 20 -100 19 0 20 7 20 100 0 93 -1 100 -20
100 -19 0 -20 -7 -20 -100z"/>
<path d="M1250 5390 c0 -93 1 -100 20 -100 18 0 20 7 20 58 0 62 19 102 49
102 31 0 41 -22 41 -92 0 -61 2 -68 20 -68 18 0 20 7 20 84 0 76 -2 86 -22
100 -12 9 -32 16 -43 16 -11 0 -31 -7 -43 -16 -20 -14 -22 -14 -22 0 0 9 -9
16 -20 16 -19 0 -20 -7 -20 -100z"/>
<path d="M1489 5461 c-23 -23 -29 -38 -29 -71 0 -73 81 -128 124 -84 15 14 16
13 16 -15 0 -34 -22 -51 -64 -51 -20 0 -26 -5 -26 -21 0 -20 4 -21 45 -16 79
8 85 21 85 164 0 100 -3 123 -14 123 -8 0 -18 -5 -21 -10 -4 -7 -12 -7 -25 0
-32 17 -60 11 -91 -19z m99 -23 c7 -7 12 -28 12 -48 0 -41 -14 -60 -46 -60
-24 0 -38 14 -49 48 -14 49 49 94 83 60z"/>
<path d="M3699 4941 l-29 -29 0 -197 0 -197 29 -29 29 -29 587 0 587 0 29 29
29 29 0 197 0 197 -29 29 -29 29 -587 0 -587 0 -29 -29z m1226 -6 c25 -24 25
-25 25 -220 0 -195 0 -196 -25 -220 l-24 -25 -586 0 -586 0 -24 25 c-25 24
-25 25 -25 220 0 195 0 196 25 220 l24 25 586 0 586 0 24 -25z"/>
<path d="M3880 4750 c0 -67 3 -83 20 -100 24 -24 77 -26 108 -4 20 14 22 24
22 100 0 68 -3 84 -15 84 -12 0 -15 -14 -15 -69 0 -75 -12 -95 -52 -89 -21 3
-23 8 -26 81 -3 69 -5 77 -22 77 -18 0 -20 -7 -20 -80z"/>
<path d="M4330 4801 c0 -28 -2 -29 -34 -24 -27 4 -36 1 -50 -18 -22 -32 -20
-85 3 -108 13 -13 33 -19 70 -19 l51 0 0 99 c0 92 -1 99 -20 99 -15 0 -20 -7
-20 -29z m-12 -63 c28 -28 2 -88 -33 -74 -15 5 -22 66 -8 79 10 11 28 8 41 -5z"/>
<path d="M4573 4819 c-7 -7 -13 -19 -13 -26 0 -7 -4 -13 -10 -13 -5 0 -10 -7
-10 -15 0 -8 4 -15 10 -15 5 0 10 -26 12 -57 3 -55 4 -58 31 -61 29 -4 39 21
12 32 -10 3 -15 19 -15 46 0 29 4 40 15 40 8 0 15 7 15 15 0 8 -6 15 -14 15
-8 0 -16 12 -18 26 -2 20 -5 23 -15 13z"/>
<path d="M4070 4679 c0 -92 1 -99 20 -99 16 0 20 7 20 30 0 27 2 29 28 24 44
-8 67 16 67 71 0 58 -17 73 -85 73 l-50 0 0 -99z m98 28 c2 -27 -1 -39 -13
-43 -35 -14 -61 46 -33 74 23 23 43 9 46 -31z"/>
<path d="M4416 4764 c-9 -8 -16 -20 -16 -25 0 -13 24 -11 37 2 13 13 43 5 43
-10 0 -6 -18 -15 -39 -21 -43 -11 -56 -31 -41 -60 8 -15 21 -18 63 -17 l53 1
-4 61 c-2 33 -9 66 -14 73 -14 17 -63 15 -82 -4z m64 -68 c0 -16 -14 -36 -25
-36 -20 0 -30 21 -14 31 15 9 39 12 39 5z"/>
<path d="M4651 4754 c-12 -15 -21 -37 -21 -49 0 -58 70 -95 116 -60 21 15 18
17 -40 19 -51 2 -43 26 8 26 42 0 46 2 46 25 0 32 -33 65 -64 65 -15 0 -33
-11 -45 -26z m73 -19 c4 -11 -2 -15 -24 -15 -29 0 -38 9 -23 23 12 12 41 7 47
-8z"/>
<path d="M299 4901 l-29 -29 0 -177 0 -177 29 -29 29 -29 1392 0 1392 0 29 29
29 29 0 177 0 177 -29 29 -29 29 -1392 0 -1392 0 -29 -29z m2836 -6 c25 -24
25 -27 25 -200 0 -173 0 -176 -25 -200 l-24 -25 -1391 0 -1391 0 -24 25 c-25
24 -25 27 -25 200 0 173 0 176 25 200 l24 25 1391 0 1391 0 24 -25z"/>
<path d="M486 4765 c-21 -22 -21 -98 0 -119 34 -34 71 -13 80 46 9 64 -42 111
-80 73z m58 -21 c9 -22 7 -67 -3 -82 -5 -8 -17 -12 -27 -10 -14 2 -20 13 -22
42 -2 21 -1 44 2 52 7 19 42 18 50 -2z"/>
<path d="M1040 3955 c0 -42 -2 -45 -19 -35 -32 16 -60 12 -86 -15 -36 -35 -36
-115 0 -150 26 -27 54 -31 88 -14 16 9 22 9 25 0 2 -6 12 -11 23 -11 18 0 19
9 19 135 l0 135 -25 0 c-23 0 -25 -4 -25 -45z m-12 -77 c16 -16 16 -80 0 -96
-31 -31 -78 -3 -78 48 0 51 47 79 78 48z"/>
<path d="M300 3860 c0 -123 1 -130 20 -130 18 0 20 7 20 55 l0 55 50 0 c43 0
50 3 50 20 0 17 -7 20 -50 20 l-50 0 0 35 0 35 55 0 c48 0 55 2 55 20 0 18 -7
20 -75 20 l-75 0 0 -130z"/>
<path d="M1410 3860 c0 -123 1 -130 20 -130 18 0 20 7 20 55 l0 55 34 0 c31 0
35 -4 56 -55 18 -45 27 -55 46 -55 13 0 24 2 24 5 0 2 -12 29 -26 58 l-27 54
22 22 c21 21 28 65 13 87 -15 23 -53 34 -116 34 l-66 0 0 -130z m141 74 c22
-26 -1 -49 -55 -52 l-46 -3 0 35 c0 36 0 36 44 36 28 0 48 -6 57 -16z"/>
<path d="M2390 3970 c0 -13 7 -20 20 -20 13 0 20 7 20 20 0 13 -7 20 -20 20
-13 0 -20 -7 -20 -20z"/>
<path d="M2710 3970 c0 -13 7 -20 20 -20 13 0 20 7 20 20 0 13 -7 20 -20 20
-13 0 -20 -7 -20 -20z"/>
<path d="M3463 3978 c-12 -6 -29 -28 -37 -49 -52 -129 49 -254 141 -175 26 23
28 29 28 106 0 77 -2 83 -28 106 -30 25 -67 30 -104 12z m85 -58 c15 -29 9
-114 -9 -136 -18 -22 -47 -17 -65 11 -20 31 -15 132 7 146 23 15 53 6 67 -21z"/>
<path d="M3767 3969 c-15 -11 -31 -38 -37 -61 -35 -127 70 -230 151 -149 27
27 29 35 29 101 0 66 -2 74 -29 101 -35 35 -77 38 -114 8z m87 -41 c33 -46 12
-150 -31 -156 -30 -4 -53 33 -53 88 0 51 22 90 50 90 10 0 26 -10 34 -22z"/>
<path d="M4003 3978 c-12 -6 -29 -28 -37 -49 -52 -129 49 -254 141 -175 26 23
28 29 28 106 0 77 -2 83 -28 106 -30 25 -67 30 -104 12z m85 -58 c15 -29 9
-114 -9 -136 -18 -22 -47 -17 -65 11 -20 31 -15 132 7 146 23 15 53 6 67 -21z"/>
<path d="M482 3848 c4 -69 8 -84 28 -100 30 -24 81 -23 114 3 24 19 26 26 26
100 0 72 -2 79 -20 79 -18 0 -20 -7 -20 -63 0 -73 -15 -101 -51 -95 -23 3 -24
7 -27 81 -3 75 -3 77 -29 77 l-26 0 5 -82z"/>
<path d="M690 3830 l0 -100 25 0 c24 0 25 2 25 69 0 75 12 95 52 89 21 -3 23
-8 26 -80 3 -76 3 -78 28 -78 l26 0 -3 79 c-3 60 -9 84 -23 100 -23 25 -58 27
-91 5 -23 -15 -25 -15 -25 0 0 9 -8 16 -20 16 -19 0 -20 -7 -20 -100z"/>
<path d="M1152 3914 c-38 -26 -26 -65 28 -90 61 -29 60 -50 -2 -47 -40 1 -48
-2 -48 -17 0 -31 80 -41 118 -14 44 30 23 76 -46 104 -44 17 -35 35 17 34 32
-1 41 3 41 16 0 31 -71 40 -108 14z"/>
<path d="M1669 3901 c-23 -23 -29 -38 -29 -71 0 -51 42 -100 87 -100 46 0 73
11 73 29 0 14 -9 17 -46 17 -37 -1 -49 3 -61 22 l-15 22 66 0 66 0 0 30 c0 41
-39 80 -80 80 -21 0 -41 -9 -61 -29z m99 -28 c2 -9 -9 -13 -37 -13 -39 0 -50
8 -34 24 11 11 66 2 71 -11z"/>
<path d="M1850 3830 l0 -100 25 0 c24 0 25 2 25 68 0 70 10 92 42 92 24 0 38
-38 38 -106 0 -47 2 -54 20 -54 18 0 20 7 20 61 0 68 12 99 38 99 32 0 42 -22
42 -92 0 -61 2 -68 20 -68 18 0 20 7 20 83 0 69 -3 87 -18 100 -23 21 -61 22
-88 3 -17 -12 -22 -12 -39 0 -25 18 -55 18 -83 -2 -20 -14 -22 -14 -22 0 0 9
-9 16 -20 16 -19 0 -20 -7 -20 -100z"/>
<path d="M2218 3923 c-10 -2 -18 -13 -18 -24 0 -17 5 -18 41 -13 30 5 43 3 50
-7 14 -22 11 -29 -15 -29 -31 0 -78 -18 -88 -33 -13 -21 -9 -53 10 -70 23 -21
51 -22 79 -2 19 13 22 13 27 0 3 -8 12 -15 21 -15 12 0 15 15 15 80 0 67 -3
83 -20 100 -19 19 -60 24 -102 13z m78 -108 c9 -23 -16 -46 -45 -43 -34 4 -40
35 -9 47 34 14 48 13 54 -4z"/>
<path d="M2390 3830 c0 -93 1 -100 20 -100 19 0 20 7 20 100 0 93 -1 100 -20
100 -19 0 -20 -7 -20 -100z"/>
<path d="M2480 3830 l0 -100 25 0 c24 0 25 2 25 69 0 75 12 95 52 89 21 -3 23
-8 26 -80 3 -76 3 -78 28 -78 l26 0 -3 79 c-3 60 -9 84 -23 100 -23 25 -58 27
-91 5 -23 -15 -25 -15 -25 0 0 9 -8 16 -20 16 -19 0 -20 -7 -20 -100z"/>
<path d="M2710 3830 c0 -93 1 -100 20 -100 19 0 20 7 20 100 0 93 -1 100 -20
100 -19 0 -20 -7 -20 -100z"/>
<path d="M2800 3830 c0 -93 1 -100 20 -100 18 0 20 7 20 58 0 62 19 102 49
102 31 0 41 -22 41 -92 0 -61 2 -68 20 -68 18 0 20 7 20 84 0 76 -2 86 -22
100 -12 9 -32 16 -43 16 -11 0 -31 -7 -43 -16 -20 -14 -22 -14 -22 0 0 9 -9
16 -20 16 -19 0 -20 -7 -20 -100z"/>
<path d="M3039 3901 c-23 -23 -29 -38 -29 -71 0 -73 81 -128 124 -84 15 14 16
13 16 -15 0 -34 -22 -51 -64 -51 -20 0 -26 -5 -26 -21 0 -20 4 -21 45 -16 79
8 85 21 85 164 0 100 -3 123 -14 123 -8 0 -18 -5 -21 -10 -4 -7 -12 -7 -25 0
-32 17 -60 11 -91 -19z m99 -23 c16 -16 16 -80 0 -96 -44 -44 -109 29 -74 83
18 27 54 33 74 13z"/>
<path d="M3240 3910 c0 -13 7 -20 20 -20 13 0 20 7 20 20 0 13 -7 20 -20 20
-13 0 -20 -7 -20 -20z"/>
<path d="M3644 3765 c-4 -9 -2 -21 4 -27 15 -15 44 -1 40 19 -4 23 -36 29 -44
8z"/>
<path d="M3240 3750 c0 -13 7 -20 20 -20 13 0 20 7 20 20 0 13 -7 20 -20 20
-13 0 -20 -7 -20 -20z"/>
<path d="M0 1770 l0 -1770 2770 0 2770 0 0 1770 0 1770 -2770 0 -2770 0 0
-1770z m745 1163 c100 -159 95 -158 95 -15 l0 122 30 0 30 0 0 -175 0 -175
-37 0 c-38 0 -39 1 -115 122 l-78 122 0 -122 0 -122 -35 0 -35 0 0 175 0 175
39 0 c39 0 39 -1 106 -107z m1255 82 c0 -23 -3 -25 -50 -25 l-50 0 0 -150 0
-150 -35 0 -35 0 0 150 0 150 -50 0 c-47 0 -50 2 -50 25 l0 25 135 0 135 0 0
-25z m1770 0 c0 -22 -4 -25 -35 -25 -31 0 -35 3 -35 25 0 22 4 25 35 25 31 0
35 -3 35 -25z m-170 -25 c0 -38 2 -40 30 -40 25 0 30 -4 30 -25 0 -21 -5 -25
-30 -25 l-31 0 3 -77 c3 -76 4 -78 29 -81 19 -2 28 -10 32 -28 4 -23 2 -24
-44 -24 -75 0 -89 19 -89 125 0 84 0 85 -25 85 -14 0 -25 4 -25 9 0 23 14 41
31 41 13 0 21 12 29 40 9 33 15 40 35 40 22 0 25 -4 25 -40z m-2475 -44 c38
-16 65 -60 65 -106 l0 -30 -85 0 c-90 0 -100 -6 -71 -46 14 -18 59 -23 121
-12 32 5 32 -36 0 -50 -38 -17 -112 -15 -146 5 -84 50 -75 200 14 238 41 18
60 18 102 1z m1252 4 c43 -15 53 -47 53 -160 l0 -100 -25 0 c-14 0 -28 7 -31
15 -5 13 -8 13 -27 0 -29 -20 -90 -19 -117 3 -25 20 -31 82 -10 107 14 17 72
35 113 35 24 0 28 4 25 23 -3 20 -8 22 -63 22 -54 0 -60 2 -63 22 -3 18 4 24
30 32 45 13 79 13 115 1z m298 0 c39 -15 55 -65 55 -170 l0 -90 -35 0 -35 0 0
86 c0 47 -5 94 -10 105 -12 21 -41 25 -71 9 -17 -9 -19 -22 -19 -105 l0 -95
-35 0 -35 0 0 130 c0 129 0 130 23 130 13 0 28 -5 33 -10 7 -7 20 -6 40 5 34
17 53 19 89 5z m248 -1 c28 -7 37 -15 33 -26 -3 -8 -6 -18 -6 -23 0 -5 -25 -6
-55 -3 -50 5 -55 4 -55 -14 0 -14 13 -24 51 -37 63 -23 85 -54 73 -99 -12 -39
-44 -57 -107 -57 -62 0 -87 14 -87 46 0 23 3 25 26 20 56 -14 80 -16 93 -7 23
15 5 38 -52 64 -34 16 -58 33 -62 47 -12 37 3 70 38 85 39 17 61 18 110 4z
m246 0 c17 -6 36 -19 41 -29 6 -10 10 -66 10 -124 0 -105 0 -106 -24 -106 -13
0 -27 7 -30 16 -5 14 -8 14 -28 0 -12 -9 -39 -16 -60 -16 -52 0 -80 29 -76 77
4 46 39 73 102 80 41 5 47 9 44 27 -3 19 -9 21 -60 19 -49 -2 -58 1 -63 18 -8
25 -4 29 37 39 48 12 71 11 107 -1z m276 1 c20 -7 26 -16 23 -33 -3 -19 -8
-22 -38 -19 -55 4 -77 -5 -89 -38 -14 -42 -3 -88 25 -107 22 -14 45 -13 88 3
12 5 16 0 16 -20 0 -32 -25 -46 -85 -46 -40 0 -52 5 -81 34 -34 34 -40 57 -34
126 7 81 94 131 175 100z m548 -4 c50 -21 70 -50 75 -110 8 -94 -39 -146 -134
-146 -39 0 -51 5 -80 34 -34 34 -40 57 -34 126 7 85 90 131 173 96z m312 4
c39 -15 55 -65 55 -170 l0 -90 -35 0 -35 0 0 86 c0 47 -5 94 -10 105 -12 21
-41 25 -71 9 -17 -9 -19 -22 -19 -105 l0 -95 -35 0 -35 0 0 130 c0 129 0 130
23 130 13 0 28 -5 33 -10 7 -7 20 -6 40 5 34 17 53 19 89 5z m-3011 -75 c10
-41 22 -77 27 -81 5 -3 9 0 9 7 0 6 9 43 21 81 l20 69 37 -3 c36 -3 37 -4 54
-68 27 -101 29 -101 52 -15 l22 80 36 3 37 3 -35 -108 c-19 -59 -37 -118 -40
-131 -5 -19 -12 -23 -43 -20 l-36 3 -24 90 -25 90 -24 -80 c-13 -44 -25 -86
-27 -92 -7 -20 -73 -16 -79 5 -2 9 -18 62 -35 118 -17 56 -31 106 -31 113 0 6
15 11 33 11 33 0 33 0 51 -75z m798 64 c3 -9 9 -9 25 0 12 6 33 11 47 11 21 0
26 -5 26 -25 0 -20 -5 -25 -25 -25 -49 0 -65 -31 -65 -125 l0 -85 -35 0 -35 0
0 130 0 130 29 0 c16 0 31 -5 33 -11z m1678 -119 l0 -130 -35 0 -35 0 0 130 0
130 35 0 35 0 0 -130z m-1416 -681 c21 -16 26 -29 26 -64 0 -58 -32 -85 -101
-85 l-49 0 0 85 0 85 49 0 c34 0 56 -6 75 -21z m516 11 c0 -5 -9 -10 -20 -10
-11 0 -20 5 -20 10 0 6 9 10 20 10 11 0 20 -4 20 -10z m200 -10 c0 -11 7 -20
15 -20 8 0 15 -4 15 -10 0 -5 -7 -10 -15 -10 -11 0 -15 -11 -15 -41 0 -32 4
-42 20 -46 32 -9 23 -25 -12 -21 -32 3 -33 5 -36 53 -2 27 -9 53 -15 57 -8 6
-9 10 -1 16 6 4 13 15 17 25 9 23 27 22 27 -3z m80 10 c0 -5 -7 -10 -15 -10
-8 0 -15 5 -15 10 0 6 7 10 15 10 8 0 15 -4 15 -10z m811 -70 c34 -91 34 -90
9 -90 -13 0 -22 9 -26 25 -4 18 -13 25 -30 25 -17 0 -27 -8 -34 -25 -6 -15
-17 -25 -29 -25 -19 0 -19 2 4 68 35 102 36 103 58 100 16 -2 27 -21 48 -78z
m689 60 c0 -11 7 -20 15 -20 8 0 15 -4 15 -10 0 -5 -7 -10 -15 -10 -11 0 -15
-11 -15 -40 0 -27 5 -43 15 -46 24 -9 18 -24 -10 -24 -29 0 -45 26 -45 74 0
20 -4 36 -10 36 -5 0 -10 5 -10 10 0 6 7 10 15 10 8 0 15 9 15 20 0 11 7 20
15 20 8 0 15 -9 15 -20z m-4242 -19 c3 -10 -3 -12 -26 -7 -40 9 -62 -14 -62
-64 0 -46 24 -65 66 -54 20 5 26 3 22 -7 -3 -8 -21 -15 -42 -17 -53 -5 -86 27
-86 82 0 57 31 88 84 84 22 -2 41 -9 44 -17z m182 -1 c0 -11 7 -20 15 -20 8 0
15 -4 15 -10 0 -5 -7 -10 -15 -10 -11 0 -15 -11 -15 -41 0 -32 4 -42 20 -46
32 -9 23 -25 -12 -21 -32 3 -33 5 -36 53 -2 27 -9 53 -15 57 -8 6 -9 10 -1 16
6 4 13 15 17 25 9 23 27 22 27 -3z m1908 -12 c7 -7 12 -22 12 -35 0 -20 -5
-23 -40 -23 -22 0 -40 -4 -40 -9 0 -19 29 -32 55 -25 21 5 27 4 23 -7 -6 -19
-69 -23 -92 -6 -23 17 -27 77 -7 101 16 19 72 21 89 4z m112 -3 c0 -11 -7 -14
-25 -9 -34 8 -32 -11 2 -28 55 -26 37 -78 -28 -78 -29 0 -39 4 -39 16 0 12 7
14 30 9 23 -5 30 -3 30 8 0 8 -11 18 -24 21 -29 7 -43 41 -26 61 17 20 80 20
80 0z m120 1 c0 -10 -9 -14 -27 -13 -26 2 -28 -1 -28 -38 0 -37 2 -40 28 -38
18 1 27 -3 27 -13 0 -20 -59 -18 -82 3 -22 20 -23 70 -1 95 20 22 83 25 83 4z
m90 6 c0 -4 -9 -13 -20 -20 -15 -9 -20 -23 -20 -57 0 -38 -3 -45 -20 -45 -18
0 -20 7 -20 65 l0 65 40 0 c22 0 40 -3 40 -8z m50 -57 c0 -58 -2 -65 -20 -65
-18 0 -20 7 -20 65 0 58 2 65 20 65 18 0 20 -7 20 -65z m131 49 c7 -9 13 -31
13 -49 0 -43 -19 -65 -55 -65 -24 0 -29 -4 -29 -25 0 -18 -5 -25 -20 -25 -19
0 -20 7 -20 90 l0 90 49 0 c32 0 53 -5 62 -16z m149 -49 c0 -51 -3 -65 -15
-65 -12 0 -15 14 -15 65 0 51 3 65 15 65 12 0 15 -14 15 -65z m134 43 c34 -49
7 -108 -49 -108 -56 0 -87 70 -48 112 23 26 78 24 97 -4z m133 10 c8 -6 13
-32 13 -64 0 -47 -3 -54 -19 -54 -17 0 -20 8 -23 53 -2 38 -7 52 -18 52 -11 0
-16 -14 -18 -52 -3 -45 -6 -53 -23 -53 -17 0 -19 7 -19 64 l0 63 47 1 c26 1
53 -4 60 -10z m760 0 c8 -6 13 -33 13 -64 0 -47 -2 -54 -20 -54 -17 0 -20 7
-20 48 0 27 -3 52 -7 55 -14 15 -33 -18 -33 -59 0 -37 -3 -44 -20 -44 -18 0
-20 7 -20 55 0 30 -4 55 -8 55 -19 0 -32 -27 -32 -67 0 -32 -4 -43 -15 -43
-12 0 -15 14 -15 64 l0 64 82 0 c45 0 88 -4 95 -10z m137 -10 c34 -49 7 -108
-49 -108 -56 0 -87 70 -48 112 23 26 78 24 97 -4z m56 -20 c0 -24 4 -49 9 -57
16 -25 31 -1 31 50 0 42 3 49 20 49 17 0 20 -7 20 -53 0 -61 -11 -77 -55 -77
-44 0 -55 16 -55 77 0 40 4 53 15 53 11 0 15 -11 15 -42z m207 30 c8 -6 13
-32 13 -64 0 -47 -3 -54 -19 -54 -17 0 -20 8 -23 53 -2 38 -7 52 -18 52 -11 0
-16 -14 -18 -52 -3 -45 -6 -53 -23 -53 -17 0 -19 7 -19 64 l0 63 47 1 c26 1
53 -4 60 -10z m-4059 -20 c7 -7 12 -36 12 -64 l0 -52 -52 1 c-52 2 -53 3 -53
32 0 25 5 32 33 40 42 12 44 39 2 30 -23 -5 -30 -3 -30 9 0 20 69 23 88 4z
m216 -4 c9 -8 16 -24 16 -35 0 -16 -7 -19 -40 -19 -28 0 -40 -4 -40 -14 0 -17
27 -28 51 -21 13 4 19 1 19 -9 0 -12 -10 -16 -39 -16 -45 0 -71 26 -71 69 0
52 68 82 104 45z m156 -46 c0 -85 -15 -112 -63 -116 -44 -4 -50 13 -7 22 37 7
40 26 3 26 -36 0 -63 27 -63 63 0 47 25 67 82 67 l48 0 0 -62z m121 46 c20
-24 16 -84 -6 -100 -25 -19 -64 -18 -87 3 -22 20 -23 70 -1 95 20 22 76 24 94
2z m154 -24 l13 -35 11 28 c6 16 11 33 11 38 0 5 9 9 20 9 11 0 20 -2 20 -4 0
-12 -54 -153 -62 -163 -10 -13 -58 -18 -58 -7 0 3 9 13 21 23 l20 16 -21 58
c-12 31 -27 57 -34 57 -23 0 -36 -24 -36 -67 0 -32 -4 -43 -15 -43 -12 0 -15
14 -15 64 l0 64 57 -1 c55 -2 57 -3 68 -37z m2130 -275 c25 -24 25 -27 25
-200 0 -173 0 -176 -25 -200 l-24 -25 -496 0 -496 0 -24 25 c-25 24 -25 27
-25 200 0 173 0 176 25 200 l24 25 496 0 496 0 24 -25z m1620 0 c25 -24 25
-27 25 -200 0 -173 0 -176 -25 -200 l-24 -25 -496 0 -496 0 -24 25 c-25 24
-25 27 -25 200 0 173 0 176 25 200 l24 25 496 0 496 0 24 -25z m-2880 -20 c24
-24 25 -28 25 -180 0 -152 -1 -156 -25 -180 l-24 -25 -841 0 -841 0 -24 25
c-24 24 -25 28 -25 180 0 152 1 156 25 180 l24 25 841 0 841 0 24 -25z m1966
-864 l29 -29 0 -242 0 -242 -29 -29 -29 -29 -1187 0 -1187 0 -29 29 -29 29 0
242 0 242 29 29 29 29 1187 0 1187 0 29 -29z"/>
<path d="M1030 2880 c-10 -19 -8 -20 45 -20 53 0 55 1 45 20 -8 14 -21 20 -45
20 -24 0 -37 -6 -45 -20z"/>
<path d="M2316 2811 c-40 -8 -56 -35 -33 -58 27 -27 71 -7 75 35 2 17 0 31 -5
31 -4 -1 -21 -4 -37 -8z"/>
<path d="M3135 2814 c-5 -1 -23 -5 -38 -8 -24 -6 -28 -11 -25 -34 3 -31 33
-40 61 -19 20 14 21 66 2 61z"/>
<path d="M3900 2884 c-8 -8 -13 -35 -13 -59 0 -74 49 -109 93 -65 25 25 28
101 4 124 -20 20 -68 21 -84 0z"/>
<path d="M2270 2075 c0 -58 2 -65 19 -65 31 0 51 28 51 70 0 29 -5 42 -19 50
-43 23 -51 14 -51 -55z"/>
<path d="M3905 2087 c-8 -19 -2 -31 13 -26 5 2 6 13 2 24 -7 19 -8 19 -15 2z"/>
<path d="M2440 2085 c-11 -13 -8 -15 13 -15 19 0 25 4 21 15 -4 8 -10 15 -14
15 -4 0 -13 -7 -20 -15z"/>
<path d="M2937 2093 c-11 -10 -8 -71 3 -78 16 -10 40 14 40 39 0 32 -27 56
-43 39z"/>
<path d="M3217 2093 c-11 -10 -8 -71 3 -78 16 -10 40 14 40 39 0 32 -27 56
-43 39z"/>
<path d="M4247 2093 c-11 -10 -8 -71 3 -78 16 -10 40 14 40 39 0 32 -27 56
-43 39z"/>
<path d="M463 2015 c-3 -9 -3 -18 0 -21 9 -9 27 6 27 22 0 19 -19 18 -27 -1z"/>
<path d="M677 2074 c-13 -13 -7 -24 14 -24 11 0 19 5 17 12 -5 14 -22 21 -31
12z"/>
<path d="M807 2073 c-11 -10 -8 -71 3 -78 16 -10 40 14 40 39 0 32 -27 56 -43
39z"/>
<path d="M947 2073 c-11 -10 -8 -71 3 -78 16 -10 40 14 40 39 0 32 -27 56 -43
39z"/>
<path d="M4050 1644 c-8 -8 -13 -35 -13 -59 0 -48 15 -75 44 -75 30 0 49 28
49 75 0 65 -47 99 -80 59z m55 -59 c0 -41 -3 -50 -19 -53 -22 -5 -36 14 -36
50 0 42 10 59 34 56 18 -3 21 -10 21 -53z"/>
<path d="M533 1595 c0 -33 2 -48 4 -32 4 22 9 27 34 27 24 0 29 -4 29 -25 0
-14 5 -25 10 -25 6 0 10 25 10 55 0 30 -4 55 -10 55 -5 0 -10 -11 -10 -25 0
-21 -5 -25 -29 -25 -25 0 -30 5 -34 28 -2 15 -4 0 -4 -33z"/>
<path d="M644 1606 c-3 -8 -4 -25 -2 -38 2 -17 9 -23 28 -23 22 0 25 4 25 35
0 29 -4 36 -23 38 -13 2 -24 -3 -28 -12z m41 -26 c0 -13 -6 -25 -12 -27 -16
-6 -27 21 -19 43 9 23 31 11 31 -16z"/>
<path d="M720 1596 c0 -42 11 -56 41 -56 27 0 29 3 29 40 0 22 -4 40 -10 40
-5 0 -10 -16 -10 -35 0 -24 -5 -35 -15 -35 -10 0 -15 11 -15 35 0 19 -4 35
-10 35 -5 0 -10 -11 -10 -24z"/>
<path d="M807 1613 c-13 -12 -7 -23 18 -35 34 -15 32 -32 -2 -23 -21 5 -25 4
-17 -5 7 -7 20 -10 30 -8 27 5 30 35 5 43 -27 8 -27 29 -1 22 11 -3 18 -1 14
4 -6 10 -38 12 -47 2z"/>
<path d="M883 1580 c0 -25 2 -35 4 -22 2 12 2 32 0 45 -2 12 -4 2 -4 -23z"/>
<path d="M910 1580 c0 -22 5 -40 10 -40 6 0 10 16 10 35 0 24 5 35 15 35 10 0
15 -11 15 -35 0 -19 5 -35 10 -35 11 0 13 39 4 64 -4 10 -18 16 -35 16 -27 0
-29 -3 -29 -40z"/>
<path d="M1000 1600 c-14 -26 3 -60 31 -60 12 0 17 -4 13 -11 -3 -6 -15 -9
-25 -6 -11 3 -19 1 -19 -5 0 -5 12 -8 28 -6 25 3 27 7 30 56 3 50 2 52 -22 52
-15 0 -30 -8 -36 -20z m45 -20 c0 -16 -6 -26 -17 -28 -14 -3 -18 3 -18 28 0
25 4 31 18 28 11 -2 17 -12 17 -28z"/>
<path d="M1880 1612 c0 -5 14 -21 30 -37 l30 -29 32 32 c37 36 30 57 -7 22
l-25 -23 -23 21 c-24 23 -37 28 -37 14z"/>
<path d="M1575 895 l-25 -24 0 -241 0 -241 25 -24 24 -25 1186 0 1186 0 24 25
25 24 0 241 0 241 -25 24 -24 25 -1186 0 -1186 0 -24 -25z m283 -182 c19 -48
62 -165 62 -169 0 -2 -11 -4 -25 -4 -18 0 -26 7 -31 26 -6 22 -11 25 -43 22
-29 -2 -37 -8 -39 -25 -3 -17 -10 -23 -28 -23 -13 0 -24 3 -24 8 0 4 14 49 32
100 29 86 33 92 58 92 21 0 30 -7 38 -27z m222 -72 l0 -99 -60 -1 c-68 0 -90
18 -90 74 0 49 26 78 66 73 31 -4 34 -2 34 24 0 23 4 28 25 28 25 0 25 0 25
-99z m160 0 l0 -99 -54 -1 c-56 0 -77 12 -90 55 -7 24 9 74 27 86 7 4 24 8 40
8 22 0 27 4 27 25 0 20 5 25 25 25 25 0 25 0 25 -99z m260 79 c0 -16 -7 -20
-30 -20 l-30 0 0 -80 c0 -73 -2 -80 -20 -80 -18 0 -20 7 -20 80 l0 80 -30 0
c-23 0 -30 4 -30 20 0 18 7 20 80 20 73 0 80 -2 80 -20z m910 -5 c0 -16 6 -25
15 -25 8 0 15 -7 15 -15 0 -8 -7 -15 -15 -15 -11 0 -15 -11 -15 -40 0 -27 5
-43 15 -46 8 -4 15 -13 15 -21 0 -10 -9 -13 -32 -11 -33 3 -33 4 -36 61 -2 31
-7 57 -12 57 -6 0 -10 7 -10 15 0 8 5 15 10 15 6 0 10 9 10 19 0 17 11 28 33
30 4 1 7 -10 7 -24z m90 10 c0 -9 -9 -15 -25 -15 -16 0 -25 6 -25 15 0 9 9 15
25 15 16 0 25 -6 25 -15z m-910 -45 c0 -6 -8 -14 -17 -17 -27 -10 -33 -23 -33
-75 0 -44 -2 -48 -25 -48 -24 0 -25 2 -25 75 l0 75 50 0 c28 0 50 -5 50 -10z
m120 -9 c5 -11 10 -44 10 -75 l0 -55 -56 2 c-42 1 -60 7 -68 20 -15 24 3 49
42 59 33 9 41 21 21 34 -6 3 -15 1 -19 -6 -4 -6 -17 -10 -29 -8 -20 3 -21 4
-6 26 21 30 89 32 105 3z m157 7 c8 -6 13 -34 13 -74 0 -57 -2 -64 -20 -64
-17 0 -20 7 -20 48 0 26 -4 53 -9 61 -16 26 -31 0 -31 -55 0 -51 -1 -54 -25
-54 -24 0 -25 2 -25 74 l0 74 52 0 c29 1 58 -4 65 -10z m152 3 c24 -16 2 -32
-35 -25 -48 9 -42 -9 8 -26 48 -17 59 -41 32 -71 -19 -21 -73 -26 -105 -8 -32
16 -11 31 33 24 31 -6 39 -4 36 6 -2 7 -19 17 -36 21 -69 18 -56 88 16 88 20
0 43 -4 51 -9z m149 -3 c5 -7 12 -41 14 -74 l4 -61 -58 -1 c-47 -1 -60 3 -68
18 -15 28 -2 49 41 61 21 7 39 16 39 20 0 15 -22 21 -33 10 -13 -13 -47 -15
-47 -2 0 34 85 56 108 29z m158 -2 c15 -12 17 -17 6 -28 -10 -10 -17 -10 -32
0 -28 17 -50 5 -50 -28 0 -38 22 -55 49 -38 16 10 23 10 32 1 20 -20 -8 -43
-51 -43 -46 0 -74 28 -74 75 0 19 8 43 19 55 21 24 72 27 101 6z m174 -61 c0
-73 -1 -75 -25 -75 -24 0 -25 2 -25 75 0 73 1 75 25 75 24 0 25 -2 25 -75z
m150 55 c12 -12 20 -33 20 -55 0 -46 -29 -75 -75 -75 -68 0 -101 78 -55 128
27 29 83 29 110 2z m170 0 c5 -10 10 -44 10 -74 0 -53 -1 -56 -25 -56 -22 0
-24 4 -27 58 -2 43 -7 57 -18 57 -11 0 -16 -14 -18 -57 -3 -54 -5 -58 -27 -58
-24 0 -25 2 -25 74 l0 74 60 1 c49 0 62 -4 70 -19z"/>
<path d="M1811 657 c-14 -37 -14 -37 9 -37 21 0 24 12 10 45 -7 19 -9 18 -19
-8z"/>
<path d="M1987 653 c-11 -10 -8 -71 3 -78 16 -10 40 14 40 39 0 32 -27 56 -43
39z"/>
<path d="M2152 648 c-17 -17 -15 -53 3 -68 22 -19 37 0 33 40 -3 37 -17 47
-36 28z"/>
<path d="M2635 591 c-3 -5 -1 -12 5 -16 12 -7 30 2 30 16 0 12 -27 12 -35 0z"/>
<path d="M3100 591 c0 -18 18 -21 30 -6 10 13 9 15 -9 15 -11 0 -21 -4 -21 -9z"/>
<path d="M3574 646 c-10 -27 1 -71 18 -74 25 -5 43 35 29 64 -12 26 -39 32
-47 10z"/>
</g>
</svg>
